<svg xmlns="http://www.w3.org/2000/svg" width="48.05" height="47.82" viewBox="0 0 48.05 47.82"><defs><style>.bee1bf8d-a996-42e1-9cdc-bb55ffe1469e{fill:#646b52;}</style></defs><title>car</title><g id="b762991d-a9bb-48ca-a068-36954f653c13" data-name="Calque 2"><g id="ff1e4352-ddef-4bc5-b6d3-29b8f158b5c4" data-name="Calque 1"><path class="bee1bf8d-a996-42e1-9cdc-bb55ffe1469e" d="M2,23.91c0,13.44,8.57,22,22.06,22,7.4,0,13.56-2.63,17.59-7.62-2,.62-3.81,1.18-6,2L35,38.64c2.58-.84,4.42-1.4,8.18-2.41l1.4.84c-.06,3.75-.17,5.66-.45,8.4l-1.74-.22c.34-3.08.45-4.43.51-5.6-4.32,5.26-11,8.17-18.88,8.17-14.67,0-24-9.35-24-23.91Zm44.13,0c0-13.44-8.57-22-22.07-22-7.39,0-13.55,2.64-17.58,7.62,2-.62,3.81-1.18,6.05-2l.56,1.62c-2.58.84-4.43,1.4-8.18,2.41l-1.4-.84c.06-3.75.17-5.65.45-8.4l1.74.23C5.32,5.66,5.21,7,5.15,8.18,9.46,2.91,16.18,0,24,0c14.68,0,24,9.35,24,23.91Zm-40,.56c0-2.74.17-3.13,2.91-6.38s4.14-4.15,7.11-4.15h7.11a11.62,11.62,0,0,1,7.45,2.3l4.26,3.19,2.74.67c3,.68,4.37,2.41,4.37,5.27A6.1,6.1,0,0,1,40.88,29l-1.57-1.12A3.94,3.94,0,0,0,40,25.37c0-2-1-3-3.53-3.64l-2.74-.67-4.15-3.14a9.57,9.57,0,0,0-6.44-2.07H16.07c-2.29,0-3.13.56-5.71,3.64C8.12,22.23,8,22.51,8,24.75v1.18a2.32,2.32,0,0,0,.67,1.85L7.34,29a3.76,3.76,0,0,1-1.29-3.08Zm24,3.42a3.75,3.75,0,0,1,4-3.92,3.71,3.71,0,0,1,4,3.92,3.75,3.75,0,0,1-4,3.92,3.8,3.8,0,0,1-3.53-2H17.58a3.79,3.79,0,0,1-3.52,2,3.78,3.78,0,0,1-4-3.92,3.75,3.75,0,0,1,4-3.92,3.72,3.72,0,0,1,4,3.92Zm-16-2.07a2,2,0,0,0-2.13,2.07A2,2,0,0,0,14.06,30a2,2,0,0,0,2.12-2.07A1.92,1.92,0,0,0,14.06,25.82Zm20,0a2,2,0,0,0-2.13,2.07A2,2,0,0,0,34.05,30a2,2,0,0,0,2.13-2.07A1.93,1.93,0,0,0,34.05,25.82Z"/></g></g></svg>
