<svg xmlns="http://www.w3.org/2000/svg" width="40.21" height="39.98" viewBox="0 0 40.21 39.98"><defs><style>.f3b54054-7de2-49d8-9d7a-46170f07c710{fill:#646b52;}</style></defs><title>steering-wheel</title><g id="bce81e4e-f9f6-445c-857e-98a08b20787a" data-name="Calque 2"><g id="b4e65a84-cee9-4180-a3a0-f7673aa60e17" data-name="Calque 1"><path class="f3b54054-7de2-49d8-9d7a-46170f07c710" d="M20.1,40C7.9,40,0,32.09,0,20S7.84,0,20.1,0,40.21,7.78,40.21,20,32.31,40,20.1,40Zm0-1.9c11,0,18.15-7.06,18.15-18.09S31.25,1.9,20.1,1.9,2,9,2,20,9.07,38.08,20.1,38.08Zm1-2.07V29.9a5.65,5.65,0,0,1-1,.06,5.6,5.6,0,0,1-1-.06V36c-8.57-.39-14.28-5.83-15-14.17h6.11a11,11,0,0,1-.11-1.4v-.5H4C4,10.19,10.3,4,20.1,4s16.08,6.21,16.08,16H30.07v.5a11,11,0,0,1-.11,1.4h6.1C35.39,30.18,29.68,35.62,21.11,36Zm8.57-18H34.1c-.72-7.61-5.93-12.15-14-12.15S6.83,10.42,6.1,18h4.43c1-2.69,3.92-4,9.57-4S28.73,15.34,29.68,18ZM17.14,29.46a11.09,11.09,0,0,1-6.28-5.72H6.38c1.24,5.77,4.88,9.19,10.76,10.14Zm-5-9c0,3.86,3.92,7.62,8,7.62s8-3.76,8-7.62c0-3.3-2.13-4.48-8-4.48S12.1,17.14,12.1,20.44Zm17.24,3.3a11,11,0,0,1-6.27,5.72v4.42c5.88-1,9.52-4.37,10.75-10.14Z"/></g></g></svg>
