<svg xmlns="http://www.w3.org/2000/svg" width="39.98" height="25.93" viewBox="0 0 39.98 25.93"><defs><style>.a851f085-d07a-4f5e-bd05-1f84427e1f13{fill:#646b52;}</style></defs><title>money</title><g id="b2d44ed5-b75d-4cb5-a00f-f46788e3835c" data-name="Calque 2"><g id="bbb8a98d-0699-4d91-8849-3ca43ca69c77" data-name="Calque 1"><path class="a851f085-d07a-4f5e-bd05-1f84427e1f13" d="M0,4H36v22H0ZM34,24V5.88H2V24ZM40,0V22H38V1.9H3.92V0ZM28.06,21.9h-20C8.06,19,7.06,18,4,18V12c3,0,4-1,4-4h20c0,3,1.06,4,4,4v6C29.06,18,28.06,19,28.06,21.9Zm2-7.9a4.63,4.63,0,0,1-4-4.09H10a4.53,4.53,0,0,1-4,4v2.18A4.47,4.47,0,0,1,10,20H26.1a4.58,4.58,0,0,1,4-4ZM18,18.48a3.25,3.25,0,0,1-3.42-3.36A3.22,3.22,0,0,1,18,11.76a3.18,3.18,0,0,1,3.41,3.36A3.22,3.22,0,0,1,18,18.48Zm0-4.93a1.46,1.46,0,0,0-1.63,1.57A1.49,1.49,0,0,0,18,16.69a1.49,1.49,0,0,0,1.62-1.57A1.43,1.43,0,0,0,18,13.55Z"/></g></g></svg>
