<svg xmlns="http://www.w3.org/2000/svg" viewBox="0 0 550 80"><path d="M210.25,68.72h29.06L184.5,12.53a2.69,2.69,0,0,0-4.62,0L125.06,68.72h28.82L182,39.59Zm299.5,0h29.06L484,12.53a2.69,2.69,0,0,0-4.62,0L424.56,68.72h28.82L481.5,39.59ZM93.44,65.66l22.68-23a3.58,3.58,0,0,0,1.26-2.32A3.56,3.56,0,0,0,116.12,38L93.44,15c-2.38-2.37-4-3.06-7.5-3.06H11.19V31.16h69l9.75,9.18-9.75,9.19h-69V68.72H85.94C89.44,68.72,91.06,68,93.44,65.66ZM270.94,15,248.25,38A3.59,3.59,0,0,0,247,40.34a3.61,3.61,0,0,0,1.25,2.32l22.69,23c2.37,2.37,4,3.06,7.5,3.06h74.75V49.53h-69l-9.75-9.19,9.75-9.18h69V12H278.44C274.94,12,273.31,12.66,270.94,15ZM384.56,68.78H405.5V12H384.56Z"/></svg>