<svg xmlns="http://www.w3.org/2000/svg" width="70.1" height="46.669" viewBox="0 0 70.1 46.669"><g transform="translate(-11.74 -19.17)"><path d="M11.74,26.948H73.965V65.839H11.74Zm58.433,35V30.682h-54.6V62.047ZM81.84,19.17V57.944H77.951v-35H19.615V19.287ZM27.393,38.5H19.615V34.61h7.778Zm0,19.445H19.615V54.055h7.778Zm8.186-6.728H31.691V47.58h3.442V45.149H31.691V41.513H35.58c1.128-4.57,4.1-6.806,9.139-6.806a15.186,15.186,0,0,1,4.2.739v3.461a20.437,20.437,0,0,0-4.2-.467,5.017,5.017,0,0,0-5.134,3.072h6.689l-.1,3.636H38.905V47.58h6.806v3.636H39.644a5.036,5.036,0,0,0,5.231,3.092,30.491,30.491,0,0,0,4.1-.389v3.558a13.612,13.612,0,0,1-4.1.564C39.838,58.041,36.766,55.786,35.58,51.216Zm30.529-12.6H58.331V34.726h7.778Zm0,19.445H58.331V54.172h7.778Z" transform="translate(0 0)" fill="#1d1d1b"/></g></svg>