<svg xmlns="http://www.w3.org/2000/svg" width="35.95" height="35.95" viewBox="0 0 35.95 35.95"><defs><style>.f1794f5b-7d42-48b1-ae85-adea0021437e{fill:#646b52;}</style></defs><title>question-mark</title><g id="a5c2865e-917d-4711-8761-bdc054563c26" data-name="Calque 2"><g id="b06b8d06-abe9-40b8-bdcc-99d4a2210c10" data-name="ICONS"><path class="f1794f5b-7d42-48b1-ae85-adea0021437e" d="M21.56,32a27.61,27.61,0,0,1-2.63,4H17.14a27.64,27.64,0,0,1-2.64-4H4a3.74,3.74,0,0,1-4-4V3.92A3.75,3.75,0,0,1,4,0H32c2.63,0,4,1.34,4,4V28a3.67,3.67,0,0,1-4,4ZM18,34a30.28,30.28,0,0,0,2.3-4H31.92A1.83,1.83,0,0,0,34,28V4a1.79,1.79,0,0,0-2-2H4a1.8,1.8,0,0,0-2,1.9V28a1.85,1.85,0,0,0,2,2H15.74A29.22,29.22,0,0,0,18,34ZM18,7.45a14.17,14.17,0,0,0-5,.89V6.44a16.44,16.44,0,0,1,5-.9c3.36,0,5.38,1.85,5.38,4.82a5.5,5.5,0,0,1-1.85,4.42l-.9,1C19.21,17.36,19,17.81,19,19.32v1.57H17V19.32a4.71,4.71,0,0,1,1.63-4.14L19.77,14a5,5,0,0,0,1.68-3.58C21.45,8.62,20.05,7.45,18,7.45Zm1.51,16.91c0,1.06-.44,1.57-1.56,1.57a1.37,1.37,0,0,1-1.57-1.57c0-1.12.5-1.57,1.57-1.57S19.54,23.24,19.54,24.36Z"/></g></g></svg>
