<svg xmlns="http://www.w3.org/2000/svg" width="70.861" height="73.992" viewBox="0 0 70.861 73.992"><g transform="translate(-14.55 -13.144)"><path d="M85.411,37.126l-4.349,1.55c-3.979-12.562-14.991-21.1-30.075-21.1-13.418,0-22.972,6.107-28.409,17.1,3.424-1.666,6.107-3.1,10.2-5l1.666,4.118c-5.76,2.429-8.768,3.887-14.875,6.316l-3.563-1.55A103.387,103.387,0,0,1,14.55,22.065l4.326-.231c0,4.627,0,7.218.231,10.225A33.661,33.661,0,0,1,50.964,13.182C68.2,13.251,80.738,22.9,85.411,37.126ZM14.55,63.106l4.326-1.55c4,12.539,14.991,21.1,30.075,21.1,13.441,0,23-6.107,28.432-17.1-3.447,1.666-6.107,3.1-10.225,5l-1.666-4.118c5.784-2.452,8.791-3.887,14.9-6.339l3.54,1.573a103.874,103.874,0,0,1,1.457,16.541l-4.349.208c0-4.627,0-7.218-.208-10.2A33.661,33.661,0,0,1,48.951,87.1C31.785,86.98,19.223,77.31,14.55,63.106Zm29.543-7.889H55.66a4.349,4.349,0,0,1,3.331-1.55,5,5,0,0,1,3.447,1.55h4.21c1.573,0,2.128-.208,2.013-1.11v-.879a2.684,2.684,0,0,0-2.175-2.66l-4.234-1.457c-1.55-.555-3.1-1.9-5.876-3.007A21.052,21.052,0,0,0,48.7,44.783a51.543,51.543,0,0,0-10.549,1.226l-3.378-2.66V42.215a47.1,47.1,0,0,1,12.978-1.874,28.363,28.363,0,0,1,9.878,1.55,73.754,73.754,0,0,1,6.547,3.678L68.8,47.328a5.76,5.76,0,0,1,3.979,5.228l.231,1.666c.44,3.331-1.9,5.228-5.552,5.228H63.641a4.611,4.611,0,0,1-9.069,0H45.319a4.611,4.611,0,0,1-9.069,0,4.951,4.951,0,0,1-5.321-5.46V52.325a7.611,7.611,0,0,1,2.105-5.76l.995-1.11a37.849,37.849,0,0,0,3.1,2.892l-.555.532a4.21,4.21,0,0,0-1.434,4c0,1.457.44,2.313,2.313,2.313a4.488,4.488,0,0,1,3.331-1.55A5.043,5.043,0,0,1,44.093,55.217Z" transform="translate(0 0)" fill="#1d1d1b"/></g></svg>