<svg xmlns="http://www.w3.org/2000/svg" width="121" height="121" viewBox="0 0 121 121"><defs><style>.e7f905fb-f7c4-4b1b-8918-0966930d7c95{fill:#59a618;}</style></defs><title>confirm</title><g id="bd82c100-c206-4cd4-9e5c-87efbd7b58e4" data-name="Calque 2"><g id="ad4f687f-4f5b-4ce8-8767-7dc99c192f02" data-name="Capa 1"><path class="e7f905fb-f7c4-4b1b-8918-0966930d7c95" d="M60.5,0A60.5,60.5,0,1,0,121,60.5,60.57,60.57,0,0,0,60.5,0Zm0,111.08A50.58,50.58,0,1,1,111.08,60.5,50.64,50.64,0,0,1,60.5,111.08Z"/><path class="e7f905fb-f7c4-4b1b-8918-0966930d7c95" d="M86.67,37.28,50.75,73.2,34.33,56.78a5,5,0,0,0-7,7L47.24,83.72a5,5,0,0,0,7,0L93.68,44.29a5,5,0,1,0-7-7Z"/></g></g></svg>