<svg xmlns="http://www.w3.org/2000/svg" width="41.94" height="34.5" viewBox="0 0 41.94 34.5"><defs><style>.f2fcb15e-0e5d-4516-ae9f-21900e311535{fill:#646b52;}</style></defs><title>handshake</title><g id="ba0bd7e3-7378-4521-a236-fe0ae835e97e" data-name="Calque 2"><g id="a84363fe-95c3-462f-8ef2-2a21925a4306" data-name="Calque 1"><path class="f2fcb15e-0e5d-4516-ae9f-21900e311535" d="M8,10.42H0V8.51H8.4A4.91,4.91,0,0,0,8,10.42ZM25,32.31a1.87,1.87,0,0,0,.95.28,1.39,1.39,0,0,0,1.29-1.34c0-.56-.05-.67-.89-1.18L19,25.82,20,24.19l10.42,6a1.48,1.48,0,0,0,.95.28,1.44,1.44,0,0,0,1.29-1.34c0-.56-.11-.73-.9-1.18l-9.07-5.26.95-1.63L34.5,27.38a2,2,0,0,0,1,.28,1.39,1.39,0,0,0,1.29-1.34c0-.5-.17-.78-.9-1.18L26,19.43,27,17.81l8.79,5a2,2,0,0,0,1,.28A1.39,1.39,0,0,0,38,21.78c0-.5-.16-.78-.89-1.17L22,11.7l1.91-1.12,14.22,8.35a3.19,3.19,0,0,1,1.9,2.8,2.62,2.62,0,0,1-2.12,2.85,2.31,2.31,0,0,1,.78,1.79,3.14,3.14,0,0,1-3.19,3.14,2.59,2.59,0,0,1-1.07-.22,3.18,3.18,0,0,1-3.08,3.13,4.06,4.06,0,0,1-1.84-.56L29,31.58a3.05,3.05,0,0,1-3.13,2.92,3.81,3.81,0,0,1-1.74-.56L13.27,27.78c-3.53-2-4.48-2.24-7.33-2.24H0V23.63H6.55a12.22,12.22,0,0,1,6.89,2Zm-2.91-23-6.83,4a3.51,3.51,0,0,1-2,.56A3.26,3.26,0,0,1,10,10.64c0-1.29.51-2,2.08-2.86l9.12-5.26c3.64,0,5.38,2,8.29,2A7.77,7.77,0,0,0,34.05,3l5-3L40,1.62,34.5,5a9,9,0,0,1-5,1.46c-3,0-4.7-1.85-7.84-2l-8.9,5.16A1.23,1.23,0,0,0,12,10.64,1.31,1.31,0,0,0,13.27,12a2.37,2.37,0,0,0,1.23-.44l6.56-3.81ZM41,12.71l.95,1.63-4,2.24L36,15.51Z"/></g></g></svg>
