<svg xmlns="http://www.w3.org/2000/svg" width="34.1" height="36.01" viewBox="0 0 34.1 36.01"><defs><style>.e253cbd8-b795-4f9e-909a-1577fbc0c693{fill:#646b52;}</style></defs><title>stopwatch</title><g id="a9d6879d-018d-4531-a10e-d74445634d3b" data-name="Calque 2"><g id="bd197e7c-d75d-4960-9711-68c38291a861" data-name="Calque 1"><path class="e253cbd8-b795-4f9e-909a-1577fbc0c693" d="M15.12,4V2h-3V0h8V2h-3V4c4.65.22,8.4,1.84,11,4.64L29.68,7,28.06,5.38,29.46,4,34.1,8.62,32.7,10,31.08,8.4l-1.74,1.74A17.11,17.11,0,0,1,32.14,20c0,9.75-6.27,16-16.07,16S0,29.74,0,20C0,10.53,5.88,4.37,15.12,4Zm1,1.9C7.34,5.88,2,11.26,2,20S7.39,34.1,16.07,34.1,30.18,28.67,30.18,20,24.81,5.88,16.07,5.88ZM7.56,19.94c0,1-.39,1.45-1.46,1.45s-1.45-.45-1.45-1.45.45-1.46,1.45-1.46S7.56,18.87,7.56,19.94Zm10,10c0,1-.39,1.46-1.46,1.46S14.62,31,14.62,30s.44-1.46,1.45-1.46S17.53,28.9,17.53,30ZM15.12,8h2V20h-2ZM27.44,19.94c0,1-.39,1.45-1.46,1.45s-1.45-.45-1.45-1.45S25,18.48,26,18.48,27.44,18.87,27.44,19.94Z"/></g></g></svg>
